<svg xmlns="http://www.w3.org/2000/svg" width="200" height="200">
  <rect width="200" height="200" fill="none"/>

  <!-- big lavender star -->
  <polygon fill="#a08ccb" fill-opacity="0.25"
    points="40,20 48,42 72,42 52,56 59,80 40,66 21,80 28,56 8,42 32,42" />

  <!-- big pink star -->
  <polygon fill="#efbfcf" fill-opacity="0.35"
    points="160,50 168,72 192,72 172,86 179,110 160,96 141,110 148,86 128,72 152,72" />

  <!-- smaller accent stars -->
  <polygon fill="#f69a57" fill-opacity="0.3"
    points="90,130 95,143 109,143 98,151 102,165 90,156 78,165 82,151 71,143 85,143" />

  <polygon fill="#b7527a" fill-opacity="0.3"
    points="150,150 155,163 169,163 158,171 162,185 150,176 138,185 142,171 131,163 145,163" />

  <polygon fill="#a08ccb" fill-opacity="0.25"
    points="60,100 64,110 76,110 66,117 69,128 60,121 51,128 54,117 44,110 56,110" />
</svg>
